<svg width="18" height="18" viewBox="0 0 18 18" fill="none" xmlns="http://www.w3.org/2000/svg">
<circle cx="8.71875" cy="8.76074" r="7.788" fill="#0CC14C" fill-opacity="0.1" stroke="#0CC14C" stroke-width="0.424"/>
<g clip-path="url(#clip0_9494_5401)">
<path d="M5.66809 9.83312C5.58924 9.83339 5.51193 9.81128 5.44515 9.76936C5.37837 9.72744 5.32485 9.66743 5.29082 9.59631C5.25678 9.52518 5.24363 9.44586 5.25288 9.36756C5.26213 9.28925 5.29341 9.21518 5.34309 9.15395L9.46809 4.90395C9.49903 4.86823 9.5412 4.8441 9.58766 4.83551C9.63413 4.82691 9.68214 4.83437 9.72381 4.85666C9.76548 4.87895 9.79833 4.91474 9.81698 4.95816C9.83562 5.00158 9.83895 5.05005 9.82642 5.09562L9.02642 7.60395C9.00283 7.66708 8.99491 7.735 9.00333 7.80187C9.01176 7.86874 9.03628 7.93257 9.07479 7.98788C9.1133 8.04319 9.16466 8.08833 9.22445 8.11943C9.28424 8.15054 9.35069 8.16667 9.41809 8.16645H12.3348C12.4136 8.16618 12.4909 8.18829 12.5577 8.23021C12.6245 8.27213 12.678 8.33213 12.712 8.40326C12.7461 8.47438 12.7592 8.55371 12.75 8.63201C12.7407 8.71031 12.7094 8.78438 12.6598 8.84562L8.53475 13.0956C8.50381 13.1313 8.46165 13.1555 8.41518 13.1641C8.36871 13.1727 8.3207 13.1652 8.27903 13.1429C8.23736 13.1206 8.20451 13.0848 8.18586 13.0414C8.16722 12.998 8.16389 12.9495 8.17642 12.9039L8.97642 10.3956C9.00001 10.3325 9.00793 10.2646 8.99951 10.1977C8.99108 10.1308 8.96656 10.067 8.92805 10.0117C8.88954 9.95638 8.83818 9.91124 8.77839 9.88013C8.7186 9.84903 8.65215 9.8329 8.58475 9.83312H5.66809Z" stroke="#0CC14C" stroke-width="0.618333" stroke-linecap="round" stroke-linejoin="round"/>
</g>
<defs>
<clipPath id="clip0_9494_5401">
<rect width="10" height="10" fill="white" transform="translate(4 4)"/>
</clipPath>
</defs>
</svg>
