<svg width="18" height="18" viewBox="0 0 18 18" fill="none" xmlns="http://www.w3.org/2000/svg">
<circle cx="8.71875" cy="8.36035" r="7.788" fill="#EC5432" fill-opacity="0.1" stroke="#EC5432" stroke-width="0.424"/>
<g clip-path="url(#clip0_9494_5410)">
<path d="M9.20964 7.58333C9.78493 7.58333 10.2513 7.11696 10.2513 6.54167C10.2513 5.96637 9.78493 5.5 9.20964 5.5C8.63434 5.5 8.16797 5.96637 8.16797 6.54167C8.16797 7.11696 8.63434 7.58333 9.20964 7.58333Z" stroke="#EC5432" stroke-width="0.666667" stroke-linecap="round" stroke-linejoin="round"/>
<path d="M9.2101 3.83301C8.62977 3.83266 8.06468 4.01873 7.59808 4.3638C7.13149 4.70887 6.78807 5.19469 6.61844 5.74967C6.16011 7.05384 6.29344 7.37467 5.29344 8.28301C5.09417 8.44637 4.95026 8.66732 4.8814 8.91562C4.81254 9.16392 4.8221 9.42744 4.90876 9.6701C4.99542 9.91276 5.15496 10.1227 5.36554 10.2712C5.57611 10.4197 5.82743 10.4995 6.08511 10.4997C7.75177 10.4997 9.5851 9.74967 10.8351 8.70801C11.2899 8.36695 11.6258 7.89145 11.7952 7.34888C11.9647 6.8063 11.9592 6.22415 11.7795 5.68489C11.5997 5.14563 11.2548 4.6766 10.7937 4.34423C10.3326 4.01186 9.77854 3.83301 9.2101 3.83301Z" stroke="#EC5432" stroke-width="0.666667" stroke-linecap="round" stroke-linejoin="round"/>
<path d="M11.7083 5.5L12.6208 7.375C12.7073 7.6443 12.7509 7.9255 12.75 8.20833C12.7503 8.62885 12.6526 9.04364 12.4645 9.41976C12.2765 9.79587 12.0033 10.123 11.6667 10.375C10.4167 11.4167 8.58333 12.1667 6.91667 12.1667C6.68469 12.1663 6.45737 12.1015 6.26016 11.9793C6.06295 11.8572 5.90362 11.6826 5.8 11.475L5 9.875" stroke="#EC5432" stroke-width="0.666667" stroke-linecap="round" stroke-linejoin="round"/>
</g>
<defs>
<clipPath id="clip0_9494_5410">
<rect width="10" height="10" fill="white" transform="translate(4 3)"/>
</clipPath>
</defs>
</svg>
