<svg width="18" height="18" viewBox="0 0 18 18" fill="none" xmlns="http://www.w3.org/2000/svg">
<circle cx="8.71875" cy="8.56055" r="7.788" fill="#0090FF" fill-opacity="0.1" stroke="#0090FF" stroke-width="0.424"/>
<path d="M11.4167 12L10.6667 8.58333L12.125 7.125C12.75 6.5 12.9583 5.66667 12.75 5.25C12.3333 5.04167 11.5 5.25 10.875 5.875L9.41667 7.33333L6 6.58333C5.79167 6.54167 5.625 6.625 5.54167 6.79167L5.41667 7C5.33333 7.20833 5.375 7.41667 5.54167 7.54167L7.75 9L6.91667 10.25H5.66667L5.25 10.6667L6.5 11.5L7.33333 12.75L7.75 12.3333V11.0833L9 10.25L10.4583 12.4583C10.5833 12.625 10.7917 12.6667 11 12.5833L11.2083 12.5C11.375 12.375 11.4583 12.2083 11.4167 12Z" fill="#0090FF"/>
</svg>
