<svg width="33" height="33" viewBox="0 0 33 33" fill="none" xmlns="http://www.w3.org/2000/svg">
<circle cx="16.4805" cy="16.5996" r="15.6" fill="#0CC14C" fill-opacity="0.1" stroke="url(#paint0_linear_9494_5257)" stroke-width="0.8"/>
<path d="M10.0026 18.5C9.86063 18.5005 9.72148 18.4607 9.60127 18.3852C9.48106 18.3098 9.38473 18.2018 9.32347 18.0737C9.26221 17.9457 9.23853 17.8029 9.25518 17.662C9.27184 17.521 9.32814 17.3877 9.41756 17.2775L16.8426 9.6275C16.8983 9.56321 16.9742 9.51977 17.0578 9.5043C17.1414 9.48883 17.2279 9.50226 17.3029 9.54238C17.3779 9.5825 17.437 9.64692 17.4706 9.72508C17.5041 9.80324 17.5101 9.89049 17.4876 9.9725L16.0476 14.4875C16.0051 14.6011 15.9908 14.7234 16.006 14.8438C16.0212 14.9641 16.0653 15.079 16.1346 15.1786C16.2039 15.2781 16.2964 15.3594 16.404 15.4154C16.5116 15.4714 16.6312 15.5004 16.7526 15.5H22.0026C22.1445 15.4995 22.2836 15.5393 22.4038 15.6148C22.5241 15.6902 22.6204 15.7982 22.6816 15.9263C22.7429 16.0543 22.7666 16.1971 22.7499 16.338C22.7333 16.479 22.677 16.6123 22.5876 16.7225L15.1626 24.3725C15.1069 24.4368 15.031 24.4802 14.9473 24.4957C14.8637 24.5112 14.7773 24.4977 14.7023 24.4576C14.6273 24.4175 14.5681 24.3531 14.5346 24.2749C14.501 24.1968 14.495 24.1095 14.5176 24.0275L15.9576 19.5125C16 19.3989 16.0143 19.2766 15.9991 19.1562C15.9839 19.0359 15.9398 18.921 15.8705 18.8214C15.8012 18.7219 15.7087 18.6406 15.6011 18.5846C15.4935 18.5286 15.3739 18.4996 15.2526 18.5H10.0026Z" stroke="#0CC14C" stroke-width="1.113" stroke-linecap="round" stroke-linejoin="round"/>
<defs>
<linearGradient id="paint0_linear_9494_5257" x1="32.4805" y1="5.79948" x2="0.48047" y2="27.3997" gradientUnits="userSpaceOnUse">
<stop stop-color="#0CC14C"/>
<stop offset="0.9999" stop-color="#EEEEEE"/>
<stop offset="1" stop-color="#EEEEEE"/>
</linearGradient>
</defs>
</svg>
