<svg width="33" height="33" viewBox="0 0 33 33" fill="none" xmlns="http://www.w3.org/2000/svg">
<circle cx="16.4805" cy="16.5996" r="15.6" fill="#0CC14C" fill-opacity="0.1" stroke="url(#paint0_linear_9494_5316)" stroke-width="0.8"/>
<path d="M16.8991 15.7083C17.9922 15.7083 18.8783 14.8222 18.8783 13.7292C18.8783 12.6361 17.9922 11.75 16.8991 11.75C15.806 11.75 14.9199 12.6361 14.9199 13.7292C14.9199 14.8222 15.806 15.7083 16.8991 15.7083Z" stroke="#0CC14C" stroke-width="1.26667" stroke-linecap="round" stroke-linejoin="round"/>
<path d="M16.8988 8.58301C15.7962 8.58235 14.7225 8.93588 13.836 9.59151C12.9494 10.2471 12.2969 11.1702 11.9746 12.2247C11.1038 14.7026 11.3571 15.3122 9.45714 17.038C9.07854 17.3484 8.80511 17.7682 8.67427 18.24C8.54344 18.7117 8.56159 19.2124 8.72625 19.6735C8.89092 20.1345 9.19404 20.5334 9.59413 20.8156C9.99422 21.0977 10.4717 21.2494 10.9613 21.2497C14.128 21.2497 17.6113 19.8247 19.9863 17.8455C20.8503 17.1975 21.4886 16.2941 21.8106 15.2632C22.1326 14.2323 22.1221 13.1262 21.7806 12.1016C21.439 11.077 20.7838 10.1858 19.9076 9.55433C19.0315 8.92283 17.9788 8.58301 16.8988 8.58301Z" stroke="#0CC14C" stroke-width="1.26667" stroke-linecap="round" stroke-linejoin="round"/>
<path d="M21.6462 11.75L23.38 15.3125C23.5442 15.8242 23.627 16.3585 23.6254 16.8958C23.626 17.6948 23.4403 18.4829 23.083 19.1975C22.7257 19.9122 22.2066 20.5336 21.5671 21.0125C19.1921 22.9917 15.7087 24.4167 12.5421 24.4167C12.1013 24.4161 11.6694 24.2928 11.2947 24.0607C10.92 23.8286 10.6173 23.4968 10.4204 23.1025L8.90039 20.0625" stroke="#0CC14C" stroke-width="1.26667" stroke-linecap="round" stroke-linejoin="round"/>
<defs>
<linearGradient id="paint0_linear_9494_5316" x1="32.4805" y1="5.79948" x2="0.48047" y2="27.3997" gradientUnits="userSpaceOnUse">
<stop offset="0.9998" stop-color="#0CC14C"/>
<stop offset="0.9999" stop-color="#EEEEEE"/>
<stop offset="1" stop-color="#EEEEEE"/>
</linearGradient>
</defs>
</svg>
