<svg width="26" height="26" viewBox="0 0 26 26" fill="none" xmlns="http://www.w3.org/2000/svg">
<path d="M12.8446 17.329C15.0512 17.4346 16.9256 15.7314 17.0312 13.5248C17.1368 11.3182 15.4336 9.44379 13.227 9.33819C11.0204 9.23258 9.14596 10.9358 9.04035 13.1424C8.93475 15.349 10.638 17.2234 12.8446 17.329Z" stroke="#282828" stroke-width="2" stroke-linecap="round" stroke-linejoin="round"/>
<path d="M17.2225 9.52935L16.9834 14.5236C16.9454 15.3184 17.2246 16.0957 17.7597 16.6845C18.2948 17.2734 19.0419 17.6256 19.8366 17.6636C20.6313 17.7016 21.4086 17.4224 21.9975 16.8873C22.5864 16.3523 22.9385 15.6052 22.9766 14.8105L23.0244 13.8116C23.1321 11.5615 22.4769 9.34091 21.1649 7.50967C19.853 5.67843 17.9611 4.3438 15.796 3.72203C13.6308 3.10025 11.3191 3.22774 9.2354 4.08386C7.15173 4.93998 5.41815 6.47456 4.31555 8.43896C3.21295 10.4034 2.80591 12.6825 3.1604 14.9072C3.51488 17.1318 4.61011 19.1716 6.26865 20.696C7.92718 22.2204 10.0518 23.1402 12.2984 23.3063C14.545 23.4724 16.7818 22.8752 18.6465 21.6112" stroke="#282828" stroke-width="2" stroke-linecap="round" stroke-linejoin="round"/>
</svg>
