<svg width="26" height="26" viewBox="0 0 26 26" fill="none" xmlns="http://www.w3.org/2000/svg">
<g clip-path="url(#clip0_8717_622)">
<path d="M17.5992 8.75582C19.1887 8.83189 20.6829 9.53626 21.753 10.714C22.8231 11.8917 23.3816 13.4463 23.3055 15.0358L22.9709 22.0278L18.9755 21.8366L19.3101 14.8446C19.3355 14.3147 19.1493 13.7965 18.7926 13.404C18.4359 13.0114 17.9378 12.7766 17.408 12.7512C16.8782 12.7259 16.36 12.912 15.9674 13.2688C15.5748 13.6255 15.34 14.1235 15.3147 14.6534L14.9801 21.6453L10.9846 21.4541L11.3193 14.4621C11.3953 12.8727 12.0997 11.3785 13.2774 10.3084C14.4551 9.23821 16.0097 8.67975 17.5992 8.75582Z" stroke="black" stroke-width="2" stroke-linecap="round" stroke-linejoin="round"/>
<path d="M7.56293 9.27642L3.5675 9.08521L2.99386 21.0715L6.98929 21.2627L7.56293 9.27642Z" stroke="black" stroke-width="2" stroke-linecap="round" stroke-linejoin="round"/>
<path d="M5.7086 6.1843C6.8119 6.2371 7.74912 5.3855 7.80192 4.28219C7.85472 3.17888 7.00312 2.24167 5.89981 2.18887C4.79651 2.13607 3.85929 2.98767 3.80649 4.09098C3.75369 5.19428 4.60529 6.13149 5.7086 6.1843Z" stroke="black" stroke-width="2" stroke-linecap="round" stroke-linejoin="round"/>
</g>
<defs>
<clipPath id="clip0_8717_622">
<rect width="24" height="24" fill="white" transform="translate(2) rotate(2.74)"/>
</clipPath>
</defs>
</svg>
