<svg width="26" height="25" viewBox="0 0 26 25" fill="none" xmlns="http://www.w3.org/2000/svg">
<path d="M16.8887 8.7561C18.48 8.7561 20.0061 9.38824 21.1313 10.5135C22.2565 11.6387 22.8887 13.1648 22.8887 14.7561L22.8887 21.7561L18.8887 21.7561L18.8887 14.7561C18.8887 14.2257 18.678 13.717 18.3029 13.3419C17.9278 12.9668 17.4191 12.7561 16.8887 12.7561C16.3582 12.7561 15.8495 12.9668 15.4745 13.3419C15.0994 13.717 14.8887 14.2257 14.8887 14.7561L14.8887 21.7561L10.8887 21.7561L10.8887 14.7561C10.8887 13.1648 11.5208 11.6387 12.646 10.5135C13.7712 9.38824 15.2974 8.7561 16.8887 8.7561Z" stroke="black" stroke-width="2" stroke-linecap="round" stroke-linejoin="round"/>
<path d="M6.88867 9.75586L2.88867 9.75586L2.88867 21.7559L6.88867 21.7559L6.88867 9.75586Z" stroke="black" stroke-width="2" stroke-linecap="round" stroke-linejoin="round"/>
<path d="M4.88867 6.75659C5.99324 6.75659 6.88867 5.86116 6.88867 4.75659C6.88867 3.65202 5.99324 2.75659 4.88867 2.75659C3.7841 2.75659 2.88867 3.65202 2.88867 4.75659C2.88867 5.86116 3.7841 6.75659 4.88867 6.75659Z" stroke="black" stroke-width="2" stroke-linecap="round" stroke-linejoin="round"/>
</svg>
