<svg width="25" height="25" viewBox="0 0 25 25" fill="none" xmlns="http://www.w3.org/2000/svg">
<path fill-rule="evenodd" clip-rule="evenodd" d="M5.94005 14.7334C5.98302 14.7477 6.0272 14.7581 6.07205 14.7644C6.35497 15.431 6.6363 16.0984 6.91605 16.7664C7.41905 17.9684 7.92605 19.2064 8.03705 19.5624C8.17605 20.0004 8.32205 20.2984 8.48205 20.5024C8.56505 20.6064 8.66005 20.6984 8.77205 20.7684C8.83039 20.8049 8.89282 20.8344 8.95805 20.8564C9.27805 20.9764 9.57005 20.9264 9.75305 20.8654C9.86044 20.8287 9.96262 20.7783 10.057 20.7154L10.062 20.7134L12.888 18.9514L16.153 21.4534C16.201 21.4904 16.253 21.5214 16.309 21.5464C16.701 21.7164 17.081 21.7764 17.439 21.7284C17.795 21.6784 18.078 21.5294 18.289 21.3604C18.5313 21.1651 18.7245 20.9158 18.853 20.6324L18.862 20.6104L18.865 20.6024L18.867 20.5984V20.5964L18.868 20.5954C18.8854 20.5524 18.8988 20.5078 18.908 20.4624L21.888 5.43736C21.8975 5.38927 21.9021 5.34037 21.902 5.29137C21.902 4.85137 21.736 4.43237 21.347 4.17937C21.013 3.96237 20.642 3.95236 20.407 3.97036C20.155 3.99036 19.921 4.05236 19.764 4.10236C19.6762 4.13022 19.5894 4.16158 19.504 4.19637L19.493 4.20136L2.77905 10.7574L2.77705 10.7584C2.7205 10.7792 2.66479 10.8022 2.61005 10.8274C2.47751 10.887 2.35037 10.9579 2.23005 11.0394C2.00305 11.1944 1.48005 11.6204 1.56905 12.3244C1.63905 12.8844 2.02305 13.2294 2.25805 13.3954C2.38605 13.4864 2.50805 13.5514 2.59805 13.5944C2.63805 13.6144 2.72405 13.6484 2.76105 13.6644L2.77105 13.6674L5.94005 14.7334ZM20.078 5.58136H20.076C20.0674 5.58519 20.0588 5.58885 20.05 5.59237L3.31605 12.1574C3.30744 12.1608 3.29877 12.1642 3.29005 12.1674L3.28005 12.1704C3.24948 12.1824 3.21945 12.1957 3.19005 12.2104C3.21788 12.2263 3.24659 12.2407 3.27605 12.2534L6.41805 13.3114C6.4742 13.3303 6.5279 13.3558 6.57805 13.3874L16.955 7.31237L16.965 7.30736C17.0054 7.28287 17.0467 7.26018 17.089 7.23937C17.161 7.20237 17.276 7.14837 17.406 7.10837C17.496 7.08036 17.763 7.00137 18.051 7.09437C18.2038 7.14251 18.3399 7.23265 18.4439 7.35449C18.5479 7.47632 18.6155 7.62494 18.639 7.78337C18.6763 7.92212 18.6773 8.0681 18.642 8.20737C18.572 8.48237 18.38 8.69637 18.205 8.86037C18.055 9.00037 16.109 10.8764 14.19 12.7284L11.577 15.2484L11.112 15.6984L16.984 20.2004C17.0633 20.2336 17.1494 20.2473 17.235 20.2404C17.2782 20.2345 17.3188 20.2165 17.352 20.1884C17.3926 20.1541 17.4274 20.1136 17.455 20.0684L17.457 20.0674L20.347 5.49437C20.256 5.51626 20.1668 5.54501 20.08 5.58037L20.078 5.58136ZM11.617 17.9754L10.445 17.0774L10.161 18.8824L11.617 17.9754ZM9.37005 15.2954L10.535 14.1704L13.148 11.6484L14.121 10.7104L7.60105 14.5274L7.63605 14.6094C8.04725 15.5808 8.45392 16.5541 8.85605 17.5294L9.13905 15.7294C9.16466 15.5624 9.24609 15.4101 9.37005 15.2954Z" fill="#282828"/>
</svg>
