<svg width="29" height="41" viewBox="0 0 29 41" fill="none" xmlns="http://www.w3.org/2000/svg">
<g clip-path="url(#clip0_8203_1153)">
<path d="M22.0231 22.4328C18.4433 22.4351 14.2875 19.2698 14.2875 14.446C14.2875 9.62147 17.8466 7.42005 21.6581 7.47031C27.0732 7.5421 28.9909 11.5709 28.5877 15.8225L19.0187 15.8188V13.0158H25.0505C25.1193 11.5096 23.5693 10.1406 21.6581 10.1406C19.6071 10.1406 17.315 11.9967 17.3834 13.5029L17.4593 15.6325C17.5281 17.8917 20.9647 19.8876 22.6088 19.8615C26.203 19.8056 27.4942 18.1052 28.1463 16.9864L28.4218 16.9807C28.582 16.1222 28.6701 15.238 28.6701 14.333C28.6701 6.41721 22.2528 0 14.337 0C6.42124 0 0.00402832 6.41721 0.00402832 14.333C0.00402832 22.2488 6.42124 28.666 14.337 28.666C19.5205 28.666 24.0609 25.9137 26.5782 21.7912C25.3536 22.1823 23.8569 22.4313 22.0231 22.4328Z" fill="black"/>
<path d="M7.11071 16.5015C8.32861 16.5015 9.31591 15.5142 9.31591 14.2963C9.31591 13.0784 8.32861 12.0911 7.11071 12.0911C5.89282 12.0911 4.90552 13.0784 4.90552 14.2963C4.90552 15.5142 5.89282 16.5015 7.11071 16.5015Z" fill="white"/>
<path d="M2.74836 34.2314C2.69773 33.1148 3.6643 31.7949 5.18519 31.7949C6.60216 31.7949 7.46973 32.8102 7.4191 33.9276H3.50975V35.7806L10.2111 35.7549C10.3128 33.4197 8.89049 29.7394 5.18519 29.8149C2.69773 29.8659 0.0576172 31.4662 0.0576172 35.0441C0.0576172 38.6217 3.16136 40.4037 5.28683 40.3746C9.0439 40.324 9.90693 37.6332 10.0592 36.8715H7.57175C7.08809 37.7013 6.44082 38.2008 5.43949 38.2424C4.22089 38.2934 2.79937 37.4303 2.74874 35.7545L2.74836 34.2314ZM28.6443 37.9374L28.6405 37.9367V33.0131C28.6405 30.8352 26.6605 30.0685 24.0204 30.0685C20.3143 30.0685 19.9081 32.353 19.9588 33.3683H22.345C22.3956 32.7592 23.0542 31.9468 23.9694 31.9468C24.9341 31.9468 26.1523 32.1497 26.1017 33.1144L25.8984 33.7742L25.0353 34.0285C21.785 34.4056 19.5836 34.7078 19.3262 36.9297C18.9091 33.0071 13.0016 34.4294 12.9521 32.7082C12.9276 31.8459 13.9493 31.5913 14.8308 31.5913C15.9478 31.5913 16.6585 32.3024 16.7598 33.3173H19.0701C18.6892 30.2967 15.7951 29.7639 14.4246 29.7639C12.852 29.7639 10.5451 30.5257 10.5153 32.9115C10.4647 36.9727 16.7092 35.0275 16.7092 37.43C16.7092 38.1407 15.8461 38.6486 14.5769 38.5979C13.4369 38.5522 12.7239 37.5822 12.7239 36.8715H10.3124C10.363 39.3087 12.9529 40.4827 14.7802 40.5273C16.7171 40.5741 19.0224 39.379 19.3157 37.7092C19.4921 40.0455 21.5772 40.5292 22.9541 40.5775C23.1173 40.584 24.02 40.8825 26.2539 39.7149L26.6091 40.3746H28.9953C28.7369 39.7436 28.6666 38.6395 28.6443 37.9374ZM23.6652 38.6992C22.8532 38.6992 22.091 38.327 22.091 37.5316C22.091 35.821 24.1122 36.0334 25.3913 35.6533L26.2033 35.5006V37.3287C25.547 38.1407 24.7368 38.6992 23.6652 38.6992Z" fill="black"/>
</g>
<defs>
<clipPath id="clip0_8203_1153">
<rect width="29" height="40.6162" fill="white"/>
</clipPath>
</defs>
</svg>
