<svg width="184" height="33" viewBox="0 0 184 33" fill="none" xmlns="http://www.w3.org/2000/svg">
<g clip-path="url(#clip0_8203_1132)">
<path d="M23.3952 9.95634H24.4223L27.3493 7.02925L27.4931 5.78653C25.8163 4.30651 23.7899 3.27839 21.6052 2.79929C19.4206 2.3202 17.1499 2.40594 15.0076 3.04842C12.8653 3.6909 10.9222 4.86891 9.36172 6.47117C7.80129 8.07343 6.67508 10.047 6.08948 12.2056C6.41557 12.0719 6.77679 12.0502 7.11652 12.1439L12.9707 11.1785C12.9707 11.1785 13.2685 10.6855 13.4226 10.7163C14.677 9.33874 16.4104 8.49269 18.2682 8.3514C20.126 8.21011 21.9675 8.78427 23.4158 9.95634H23.3952Z" fill="#0F0F0F" fill-opacity="0.8"/>
<path d="M31.5191 12.2056C30.8463 9.72803 29.4649 7.50069 27.5444 5.79688L23.4363 9.90506C24.2924 10.6046 24.9786 11.4895 25.4429 12.4929C25.9073 13.4964 26.1377 14.5921 26.1168 15.6976V16.4268C26.597 16.4268 27.0724 16.5214 27.516 16.7051C27.9596 16.8889 28.3627 17.1582 28.7022 17.4977C29.0417 17.8372 29.3111 18.2403 29.4948 18.6839C29.6786 19.1275 29.7731 19.6029 29.7731 20.0831C29.7731 20.5632 29.6786 21.0387 29.4948 21.4823C29.3111 21.9259 29.0417 22.329 28.7022 22.6685C28.3627 23.008 27.9596 23.2773 27.516 23.4611C27.0724 23.6448 26.597 23.7394 26.1168 23.7394H18.8043L18.0751 24.4788V28.8643L18.8043 29.5935H26.1168C28.1589 29.6094 30.1518 28.9676 31.8007 27.7631C33.4497 26.5586 34.6672 24.8553 35.2731 22.9051C35.879 20.955 35.8411 18.8617 35.165 16.9348C34.4889 15.0078 33.2106 13.3497 31.5191 12.2056Z" fill="#0F0F0F" fill-opacity="0.8"/>
<path d="M11.4814 29.5524H18.794V23.6983H11.4814C10.9604 23.6982 10.4456 23.5861 9.97166 23.3696L8.94462 23.688L5.997 26.6151L5.74023 27.6421C7.3932 28.8903 9.41016 29.5614 11.4814 29.5524Z" fill="#0F0F0F" fill-opacity="0.8"/>
<path d="M11.4815 10.5626C9.50011 10.5744 7.57193 11.2048 5.96623 12.3656C4.36052 13.5265 3.15749 15.1599 2.52515 17.0377C1.89281 18.9155 1.86275 20.9439 2.43917 22.8396C3.01558 24.7353 4.16968 26.4036 5.74028 27.6115L9.98198 23.3698C9.44295 23.1263 8.97105 22.7556 8.60677 22.2896C8.24249 21.8236 7.9967 21.2762 7.8905 20.6943C7.7843 20.1124 7.82086 19.5135 7.99703 18.9488C8.1732 18.3842 8.48374 17.8707 8.90199 17.4524C9.32023 17.0342 9.83371 16.7237 10.3984 16.5475C10.963 16.3713 11.562 16.3348 12.1438 16.441C12.7257 16.5472 13.2732 16.7929 13.7392 17.1572C14.2052 17.5215 14.5758 17.9934 14.8194 18.5324L19.0611 14.2907C18.1708 13.1268 17.0233 12.1847 15.7084 11.5379C14.3935 10.8912 12.9468 10.5573 11.4815 10.5626Z" fill="#0F0F0F" fill-opacity="0.8"/>
<path d="M55.172 25.4648C53.913 25.4808 52.6637 25.2426 51.4989 24.7643C50.3342 24.2861 49.2779 23.5777 48.3935 22.6815C47.4812 21.8234 46.7572 20.785 46.2674 19.6322C45.7777 18.4795 45.5329 17.2375 45.5486 15.9852C45.5335 14.7329 45.7786 13.4911 46.2683 12.3385C46.758 11.1858 47.4817 10.1473 48.3935 9.28882C49.2736 8.38338 50.3279 7.66545 51.4928 7.17829C52.6578 6.69113 53.9093 6.44481 55.172 6.45418C56.3751 6.43814 57.5694 6.66141 58.6855 7.11102C59.8016 7.56062 60.8171 8.22759 61.6732 9.07314L59.845 10.9321C58.5931 9.72219 56.9128 9.05747 55.172 9.08341C54.2689 9.07232 53.3734 9.24921 52.5424 9.60283C51.7114 9.95646 50.963 10.4791 50.3449 11.1375C49.7024 11.7749 49.1956 12.5357 48.8549 13.3741C48.5143 14.2125 48.3468 15.1111 48.3627 16.016C48.3551 16.9105 48.5266 17.7975 48.867 18.6247C49.2075 19.4519 49.7099 20.2027 50.3449 20.8328C51.6167 22.1003 53.333 22.8213 55.1285 22.8424C56.9239 22.8635 58.6567 22.183 59.958 20.9458C60.7636 20.0636 61.2579 18.9416 61.3651 17.7517H55.2028V15.1224H63.9224C64.0081 15.652 64.0425 16.1885 64.0251 16.7246C64.0794 17.8343 63.908 18.9434 63.5214 19.9849C63.1348 21.0264 62.541 21.9787 61.7759 22.7842C60.9252 23.6699 59.8975 24.3664 58.7596 24.8282C57.6217 25.2901 56.3993 25.507 55.172 25.4648ZM75.4459 23.7188C74.2757 24.8405 72.7173 25.4668 71.0963 25.4668C69.4753 25.4668 67.917 24.8405 66.7468 23.7188C66.1643 23.1541 65.7056 22.4745 65.3998 21.723C65.0939 20.9716 64.9476 20.1648 64.97 19.3539C64.9482 18.543 65.0948 17.7364 65.4006 16.9851C65.7065 16.2338 66.1649 15.554 66.7468 14.9889C67.9182 13.8696 69.4761 13.2449 71.0963 13.2449C72.7166 13.2449 74.2745 13.8696 75.4459 14.9889C76.0278 15.554 76.4862 16.2338 76.792 16.9851C77.0979 17.7364 77.2445 18.543 77.2227 19.3539C77.2438 20.1656 77.0958 20.9728 76.7882 21.7243C76.4805 22.4757 76.0199 23.155 75.4356 23.7188H75.4459ZM68.6674 22.0037C68.9786 22.3361 69.3548 22.601 69.7726 22.7822C70.1904 22.9633 70.641 23.0568 71.0963 23.0568C71.5517 23.0568 72.0023 22.9633 72.4201 22.7822C72.8379 22.601 73.214 22.3361 73.5253 22.0037C73.8647 21.6529 74.1304 21.2377 74.3068 20.7826C74.4832 20.3275 74.5667 19.8417 74.5524 19.3539C74.5675 18.8644 74.4844 18.3768 74.308 17.9199C74.1316 17.4631 73.8655 17.0462 73.5253 16.6938C73.2099 16.3648 72.8312 16.103 72.412 15.9242C71.9929 15.7453 71.5418 15.6531 71.0861 15.6531C70.6303 15.6531 70.1793 15.7453 69.7601 15.9242C69.3409 16.103 68.9622 16.3648 68.6468 16.6938C68.3067 17.0462 68.0405 17.4631 67.8641 17.9199C67.6877 18.3768 67.6047 18.8644 67.6198 19.3539C67.6068 19.8425 67.6919 20.3287 67.8701 20.7838C68.0483 21.2389 68.3159 21.6537 68.6571 22.0037H68.6674ZM88.818 23.7188C87.6478 24.8405 86.0895 25.4668 84.4685 25.4668C82.8475 25.4668 81.2891 24.8405 80.1189 23.7188C79.5365 23.1541 79.0778 22.4745 78.7719 21.723C78.466 20.9716 78.3197 20.1648 78.3421 19.3539C78.3203 18.543 78.467 17.7364 78.7728 16.9851C79.0786 16.2338 79.537 15.554 80.1189 14.9889C81.2891 13.8672 82.8475 13.241 84.4685 13.241C86.0895 13.241 87.6478 13.8672 88.818 14.9889C89.4 15.554 89.8583 16.2338 90.1642 16.9851C90.47 17.7364 90.6166 18.543 90.5948 19.3539C90.6173 20.1648 90.4709 20.9716 90.165 21.723C89.8592 22.4745 89.4005 23.1541 88.818 23.7188ZM82.0395 22.0037C82.3508 22.3361 82.7269 22.601 83.1447 22.7822C83.5626 22.9633 84.0131 23.0568 84.4685 23.0568C84.9239 23.0568 85.3744 22.9633 85.7922 22.7822C86.21 22.601 86.5862 22.3361 86.8974 22.0037C87.2368 21.6529 87.5026 21.2377 87.6789 20.7826C87.8553 20.3275 87.9388 19.8417 87.9245 19.3539C87.9396 18.8644 87.8565 18.3768 87.6801 17.9199C87.5037 17.4631 87.2376 17.0462 86.8974 16.6938C86.5821 16.3648 86.2034 16.103 85.7842 15.9242C85.365 15.7453 84.914 15.6531 84.4582 15.6531C84.0025 15.6531 83.5514 15.7453 83.1322 15.9242C82.713 16.103 82.3344 16.3648 82.019 16.6938C81.6788 17.0462 81.4127 17.4631 81.2363 17.9199C81.0599 18.3768 80.9768 18.8644 80.9919 19.3539C80.9789 19.8425 81.0641 20.3287 81.2422 20.7838C81.4204 21.2389 81.688 21.6537 82.0292 22.0037H82.0395ZM97.6095 30.9492C96.3785 30.9884 95.1713 30.6041 94.1895 29.8606C93.3177 29.2052 92.6311 28.3346 92.197 27.334L94.5387 26.3583C94.7935 26.9563 95.1922 27.482 95.6992 27.8886C96.242 28.3261 96.923 28.5556 97.6198 28.5357C98.0617 28.5626 98.5041 28.4939 98.9171 28.3344C99.33 28.1749 99.7038 27.9283 100.013 27.6113C100.632 26.8649 100.937 25.9079 100.865 24.941V24.0577H100.773C100.381 24.5226 99.8872 24.8899 99.3292 25.1306C98.7712 25.3712 98.1649 25.4786 97.5582 25.4443C96.7871 25.4466 96.0239 25.289 95.3168 24.9814C94.6096 24.6738 93.974 24.2229 93.45 23.6572C92.8814 23.096 92.4326 22.4253 92.1307 21.6856C91.8288 20.9459 91.6802 20.1527 91.6937 19.3539C91.6796 18.5504 91.8278 17.7524 92.1296 17.0076C92.4314 16.2628 92.8805 15.5867 93.45 15.0197C93.9727 14.4517 94.6079 13.9985 95.3151 13.6891C96.0224 13.3797 96.7862 13.2208 97.5582 13.2224C98.2115 13.2213 98.8569 13.3651 99.448 13.6435C99.9592 13.8668 100.415 14.1999 100.783 14.6192H100.876V13.6435H103.423V24.5815C103.49 25.4468 103.379 26.3167 103.099 27.1378C102.818 27.959 102.372 28.7142 101.79 29.3573C101.234 29.8884 100.579 30.3029 99.8607 30.5763C99.1427 30.8497 98.3773 30.9765 97.6095 30.9492ZM97.7944 23.0615C98.233 23.0712 98.6683 22.9841 99.0694 22.8066C99.4706 22.6291 99.8277 22.3655 100.116 22.0345C100.749 21.3083 101.083 20.3685 101.05 19.4052C101.088 18.4258 100.754 17.4681 100.116 16.7246C99.8282 16.393 99.4711 16.129 99.0698 15.9515C98.6686 15.7739 98.2331 15.6872 97.7944 15.6976C97.3439 15.6883 96.8965 15.7751 96.4821 15.9522C96.0677 16.1293 95.6958 16.3926 95.3911 16.7246C94.7117 17.4414 94.3427 18.3973 94.3641 19.3847C94.3536 19.869 94.439 20.3506 94.6152 20.8018C94.7915 21.253 95.0552 21.6649 95.3911 22.0139C95.6944 22.3491 96.0655 22.6159 96.4799 22.7966C96.8943 22.9772 97.3424 23.0675 97.7944 23.0615ZM107.952 7.1423V25.0951H105.271V7.1423H107.952ZM115.306 25.4648C114.503 25.4854 113.704 25.3401 112.96 25.0379C112.216 24.7357 111.543 24.2831 110.982 23.7086C110.412 23.1382 109.965 22.4581 109.667 21.7095C109.368 20.9609 109.225 20.1595 109.246 19.3539C109.216 18.5463 109.348 17.7409 109.636 16.9857C109.923 16.2305 110.36 15.5409 110.92 14.9581C111.448 14.4019 112.086 13.9621 112.793 13.6667C113.5 13.3714 114.262 13.227 115.028 13.243C115.733 13.2355 116.432 13.3718 117.082 13.6435C117.668 13.88 118.202 14.2289 118.654 14.6705C119.042 15.045 119.386 15.4618 119.681 15.9133C119.919 16.2944 120.122 16.6967 120.287 17.1149L120.564 17.8133L112.348 21.1923C112.596 21.7632 113.012 22.2455 113.54 22.5755C114.068 22.9055 114.683 23.0678 115.306 23.041C115.911 23.0426 116.506 22.8874 117.034 22.5904C117.561 22.2934 118.002 21.8648 118.315 21.3463L120.369 22.7329C119.845 23.4828 119.174 24.1187 118.397 24.6021C117.473 25.1858 116.398 25.4858 115.306 25.4648ZM111.875 19.169L117.339 16.8992C117.171 16.499 116.87 16.169 116.487 15.9646C116.058 15.7224 115.572 15.5984 115.08 15.6052C114.244 15.6268 113.45 15.9774 112.871 16.5809C112.525 16.9123 112.256 17.3161 112.084 17.7636C111.912 18.211 111.84 18.6909 111.875 19.169ZM134.604 25.4648C133.464 25.4845 132.331 25.2736 131.275 24.8448C130.219 24.416 129.26 23.7782 128.456 22.9695C127.652 22.1609 127.02 21.1982 126.597 20.1392C126.175 19.0801 125.971 17.9467 125.997 16.8068C125.971 15.6669 126.175 14.5335 126.597 13.4744C127.02 12.4154 127.652 11.4527 128.456 10.6441C129.26 9.83546 130.219 9.1976 131.275 8.7688C132.331 8.34001 133.464 8.12912 134.604 8.1488C135.758 8.11273 136.905 8.33785 137.959 8.80736C139.014 9.27687 139.949 9.97863 140.694 10.8602L139.215 12.2981C138.668 11.6098 137.966 11.0605 137.167 10.6946C136.367 10.3288 135.493 10.1568 134.614 10.1926C133.768 10.1736 132.928 10.3257 132.142 10.6399C131.357 10.954 130.643 11.4237 130.044 12.0208C129.421 12.6473 128.934 13.3959 128.614 14.2195C128.294 15.0431 128.148 15.924 128.185 16.8068C128.148 17.6896 128.294 18.5705 128.614 19.3941C128.934 20.2177 129.421 20.9663 130.044 21.5928C130.643 22.1899 131.357 22.6596 132.142 22.9737C132.928 23.2879 133.768 23.44 134.614 23.421C135.596 23.432 136.567 23.2216 137.456 22.8056C138.345 22.3895 139.129 21.7784 139.749 21.0177L141.228 22.4966C140.454 23.4226 139.482 24.1631 138.383 24.6637C137.199 25.2103 135.908 25.4841 134.604 25.4648ZM145.203 25.0951H143.077V8.50827H145.203V25.0951ZM148.674 15.1122C149.788 14.0058 151.295 13.3849 152.865 13.3849C154.435 13.3849 155.941 14.0058 157.055 15.1122C157.6 15.6873 158.025 16.3646 158.307 17.1049C158.589 17.8452 158.722 18.6339 158.698 19.4258C158.722 20.2176 158.589 21.0064 158.307 21.7467C158.025 22.487 157.6 23.1642 157.055 23.7394C155.941 24.8457 154.435 25.4666 152.865 25.4666C151.295 25.4666 149.788 24.8457 148.674 23.7394C148.13 23.1642 147.704 22.487 147.422 21.7467C147.14 21.0064 147.007 20.2176 147.031 19.4258C147.007 18.6339 147.14 17.8452 147.422 17.1049C147.704 16.3646 148.13 15.6873 148.674 15.1122ZM150.256 22.4042C150.591 22.7582 150.995 23.0402 151.442 23.2329C151.89 23.4256 152.372 23.525 152.859 23.525C153.347 23.525 153.829 23.4256 154.277 23.2329C154.724 23.0402 155.128 22.7582 155.463 22.4042C155.835 22.0055 156.123 21.5368 156.312 21.0254C156.501 20.5141 156.586 19.9703 156.562 19.4258C156.586 18.8812 156.501 18.3375 156.312 17.8261C156.123 17.3148 155.835 16.8461 155.463 16.4473C155.128 16.0933 154.724 15.8114 154.277 15.6186C153.829 15.4259 153.347 15.3265 152.859 15.3265C152.372 15.3265 151.89 15.4259 151.442 15.6186C150.995 15.8114 150.591 16.0933 150.256 16.4473C149.884 16.8461 149.596 17.3148 149.407 17.8261C149.218 18.3375 149.133 18.8812 149.157 19.4258C149.136 19.9693 149.224 20.5116 149.414 21.0211C149.604 21.5306 149.894 21.9973 150.266 22.3939L150.256 22.4042ZM170.478 25.0951H168.424V23.5237H168.363C167.997 24.1205 167.48 24.6096 166.863 24.941C166.224 25.3118 165.497 25.5066 164.758 25.5059C164.158 25.5469 163.556 25.4519 162.997 25.2278C162.439 25.0037 161.938 24.6564 161.533 24.2118C160.755 23.2277 160.364 21.9929 160.434 20.7404V13.7565H162.56V20.3501C162.56 22.4658 163.495 23.5237 165.364 23.5237C165.779 23.5366 166.191 23.4502 166.567 23.2715C166.942 23.0929 167.269 22.8272 167.521 22.4966C168.072 21.7983 168.365 20.9315 168.352 20.042V13.7565H170.478V25.0951ZM177.699 25.4648C176.977 25.4672 176.264 25.3133 175.608 25.0136C174.952 24.714 174.369 24.2758 173.899 23.7291C172.834 22.5531 172.264 21.0117 172.307 19.4258C172.264 17.8399 172.834 16.2985 173.899 15.1224C174.369 14.5758 174.952 14.1375 175.608 13.8379C176.264 13.5383 176.977 13.3843 177.699 13.3867C178.507 13.374 179.305 13.5647 180.02 13.9413C180.648 14.2575 181.18 14.7363 181.56 15.3279H181.653L181.56 13.7565V8.50827H183.686V25.0951H181.632V23.5237H181.54C181.159 24.1153 180.627 24.5941 179.999 24.9102C179.29 25.2835 178.5 25.4741 177.699 25.4648ZM178.048 23.5237C178.528 23.5307 179.005 23.4354 179.446 23.2442C179.887 23.0529 180.282 22.7701 180.605 22.4145C181.327 21.5922 181.696 20.5183 181.632 19.4258C181.696 18.3332 181.327 17.2594 180.605 16.4371C180.28 16.0795 179.883 15.7938 179.441 15.5984C178.999 15.4029 178.521 15.3019 178.038 15.3019C177.554 15.3019 177.076 15.4029 176.634 15.5984C176.192 15.7938 175.795 16.0795 175.47 16.4371C175.111 16.8415 174.836 17.3128 174.66 17.8239C174.483 18.335 174.41 18.8759 174.443 19.4155C174.41 19.9551 174.483 20.496 174.66 21.0071C174.836 21.5182 175.111 21.9895 175.47 22.3939C175.794 22.7559 176.191 23.0441 176.636 23.2391C177.081 23.434 177.562 23.531 178.048 23.5237Z" fill="#0F0F0F"/>
</g>
<defs>
<clipPath id="clip0_8203_1132">
<rect width="182.836" height="32.0329" fill="white" transform="translate(0.849976 0.291748)"/>
</clipPath>
</defs>
</svg>
