<svg width="128" height="41" viewBox="0 0 128 41" fill="none" xmlns="http://www.w3.org/2000/svg">
<path d="M110.5 0.253919C109.095 0.260108 107.749 0.822667 106.758 1.81851C105.766 2.81435 105.21 4.16237 105.21 5.56762C105.209 6.26546 105.347 6.95647 105.614 7.60119C105.881 8.24591 106.272 8.83174 106.766 9.3252C107.259 9.81866 107.845 10.2101 108.49 10.4772C109.134 10.7442 109.825 10.8817 110.523 10.8817C111.932 10.8816 113.284 10.3216 114.28 9.32506C115.277 8.32848 115.837 6.97689 115.837 5.56762C115.836 4.15842 115.277 2.80696 114.28 1.81046C113.284 0.813971 111.932 0.254072 110.523 0.253919C110.515 0.253902 110.508 0.253902 110.5 0.253919ZM109.831 1.5368C109.852 1.5368 109.873 1.53882 109.892 1.54184C110.156 1.59374 110.181 2.00942 109.916 2.07584C108.018 2.4554 106.727 4.20137 107.031 6.09917C107.031 6.47874 106.575 6.62983 106.575 6.17436C106.196 3.97288 107.562 1.99967 109.763 1.5442C109.787 1.53936 109.81 1.5372 109.831 1.5368ZM99.4397 3.74523C98.8315 3.7452 98.2293 3.86496 97.6674 4.0977C97.1055 4.33044 96.595 4.67157 96.1649 5.10165C95.7349 5.53172 95.3938 6.04232 95.1611 6.60423C94.9284 7.16615 94.8087 7.76838 94.8088 8.37657C94.8087 8.98473 94.9285 9.58695 95.1612 10.1488C95.3939 10.7107 95.735 11.2212 96.165 11.6512C96.5951 12.0813 97.1056 12.4224 97.6675 12.6551C98.2294 12.8878 98.8316 13.0076 99.4397 13.0075C100.668 13.0074 101.846 12.5194 102.714 11.651C103.582 10.7825 104.07 9.60466 104.07 8.37657C104.07 7.76845 103.95 7.16627 103.718 6.6044C103.485 6.04254 103.144 5.53201 102.714 5.10194C102.284 4.67188 101.774 4.33071 101.212 4.09792C100.65 3.86514 100.048 3.7453 99.4397 3.74523ZM98.7357 4.87621C98.7534 4.87621 98.7702 4.87629 98.7865 4.87901C99.0148 4.91637 99.0978 5.27303 98.8321 5.33946C97.162 5.71901 96.1 7.2382 96.3278 8.90827C96.4037 9.13602 95.948 9.28711 95.8721 8.98346C95.5684 7.00973 96.7069 5.26449 98.6806 4.88492C98.6996 4.88008 98.7181 4.87722 98.7357 4.87621ZM107.031 6.85837C107.334 6.85837 107.334 7.38923 107.031 7.38923C106.651 7.38923 106.651 6.93429 107.031 6.85837ZM96.4029 9.59098C96.7066 9.59098 96.7066 10.0467 96.4029 10.0467C96.0993 10.0467 96.0993 9.59098 96.4029 9.59098ZM106.25 14.5257C105.126 14.5317 104.051 14.9822 103.259 15.7786C102.466 16.5751 102.021 17.6527 102.021 18.7761C102.021 19.9036 102.469 20.9849 103.266 21.7822C104.063 22.5795 105.144 23.0275 106.272 23.0277C106.83 23.0278 107.383 22.9179 107.899 22.7042C108.415 22.4906 108.883 22.1774 109.278 21.7826C109.673 21.3878 109.986 20.9191 110.2 20.4032C110.413 19.8874 110.523 19.3345 110.523 18.7761C110.523 17.6487 110.075 16.5675 109.278 15.7704C108.48 14.9733 107.399 14.5256 106.272 14.5257C106.264 14.5257 106.257 14.5257 106.25 14.5257ZM105.746 15.5796C105.923 15.6024 106.006 15.9012 105.74 15.9676C104.222 16.2712 103.235 17.6376 103.463 19.1559C103.463 19.4595 103.084 19.5355 103.084 19.3078C102.856 17.5618 103.919 15.9674 105.665 15.5878C105.693 15.5784 105.721 15.5763 105.746 15.5796ZM103.463 19.7635C103.767 19.7635 103.767 20.2192 103.463 20.2192C103.235 20.2192 103.235 19.7635 103.463 19.7635Z" fill="black"/>
<path d="M-0.000183105 17.3196H1.84917V24.1252L9.08631 17.3196H11.5398L2.82316 25.4567L12.2179 35.4556H9.81373L1.84917 26.9979V35.4556H-0.000183105V17.3196Z" fill="white"/>
<path d="M21.0084 21.6965C23.0714 21.6965 24.7811 22.4445 26.1373 23.9404C27.3702 25.3048 27.9866 26.9199 27.9866 28.7857C27.9866 30.6597 27.3332 32.2995 26.0263 33.705C24.7276 35.1023 23.055 35.8009 21.0084 35.8009C18.9535 35.8009 17.2727 35.1023 15.9658 33.705C14.6672 32.2995 14.0178 30.6597 14.0178 28.7857C14.0178 26.9282 14.6343 25.3172 15.8672 23.9527C17.2234 22.4486 18.9371 21.6965 21.0084 21.6965ZM21.0084 23.3856C19.5782 23.3856 18.3494 23.9158 17.322 24.9761C16.2946 26.0364 15.7809 27.3186 15.7809 28.8227C15.7809 29.7926 16.0151 30.6967 16.4836 31.5351C16.9521 32.3735 17.585 33.0228 18.3823 33.4831C19.1796 33.9352 20.0549 34.1612 21.0084 34.1612C21.9618 34.1612 22.8372 33.9352 23.6345 33.4831C24.4317 33.0228 25.0646 32.3735 25.5331 31.5351C26.0016 30.6967 26.2359 29.7926 26.2359 28.8227C26.2359 27.3186 25.7181 26.0364 24.6824 24.9761C23.655 23.9158 22.4303 23.3856 21.0084 23.3856Z" fill="white"/>
<path d="M32.6837 17.0605H34.4221V22.0415H37.1591V23.521H34.4221V35.4555H32.6837V23.521H30.3289V22.0415H32.6837V17.0605Z" fill="white"/>
<path d="M53.1252 22.0417V35.4557H51.4238V33.1502C50.7005 34.0297 49.8867 34.6913 48.9826 35.1352C48.0867 35.579 47.1045 35.8009 46.036 35.8009C44.1373 35.8009 42.514 35.1146 41.166 33.742C39.8262 32.3611 39.1564 30.6844 39.1564 28.7118C39.1564 26.7802 39.8345 25.1281 41.1907 23.7555C42.5469 22.3828 44.1784 21.6965 46.0853 21.6965C47.1867 21.6965 48.1812 21.9308 49.0689 22.3993C49.9648 22.8678 50.7498 23.5705 51.4238 24.5076V22.0417H53.1252ZM46.2209 23.361C45.2592 23.361 44.3716 23.5993 43.5578 24.076C42.7441 24.5445 42.0948 25.2062 41.6098 26.061C41.1331 26.9158 40.8948 27.82 40.8948 28.7734C40.8948 29.7186 41.1372 30.6228 41.6222 31.4858C42.1071 32.3488 42.7564 33.0228 43.5702 33.5077C44.3921 33.9845 45.2716 34.2228 46.2086 34.2228C47.1538 34.2228 48.0497 33.9845 48.8963 33.5077C49.7429 33.031 50.3922 32.3858 50.8443 31.5721C51.3046 30.7584 51.5347 29.8419 51.5347 28.8227C51.5347 27.2693 51.021 25.9706 49.9936 24.9267C48.9744 23.8829 47.7168 23.361 46.2209 23.361Z" fill="white"/>
<path d="M57.0211 22.0417H58.7472V24.4459C59.4376 23.5253 60.202 22.839 61.0404 22.387C61.8788 21.9267 62.7911 21.6965 63.7774 21.6965C64.7802 21.6965 65.6679 21.9513 66.4405 22.4609C67.2213 22.9705 67.7967 23.6568 68.1666 24.5199C68.5364 25.3829 68.7214 26.7268 68.7214 28.5515V35.4557H67.0076V29.057C67.0076 27.5117 66.9419 26.4802 66.8104 25.9624C66.6049 25.0747 66.2186 24.4089 65.6514 23.9651C65.0843 23.513 64.3446 23.287 63.4322 23.287C62.3884 23.287 61.4513 23.6322 60.6212 24.3226C59.7993 25.013 59.2568 25.8679 58.9938 26.8871C58.8294 27.5528 58.7472 28.7693 58.7472 30.5364V35.4557H57.0211V22.0417Z" fill="white"/>
<path d="M73.0123 16.5181C73.4068 16.5181 73.7438 16.6578 74.0232 16.9373C74.3027 17.2167 74.4424 17.5537 74.4424 17.9482C74.4424 18.3345 74.3027 18.6674 74.0232 18.9469C73.7438 19.2263 73.4068 19.3661 73.0123 19.3661C72.626 19.3661 72.2931 19.2263 72.0136 18.9469C71.7342 18.6674 71.5944 18.3345 71.5944 17.9482C71.5944 17.5537 71.7342 17.2167 72.0136 16.9373C72.2931 16.6578 72.626 16.5181 73.0123 16.5181ZM72.1492 22.0415H73.8876V35.4555H72.1492V22.0415Z" fill="white"/>
<path d="M84.7618 17.3196H88.3742C90.4455 17.3196 91.8428 17.41 92.5661 17.5908C93.6018 17.8456 94.4484 18.3717 95.1059 19.1689C95.7634 19.958 96.0922 20.9525 96.0922 22.1526C96.0922 23.3608 95.7717 24.3595 95.1306 25.1485C94.4895 25.9294 93.6059 26.4554 92.4798 26.7266C91.6579 26.9239 90.1209 27.0225 87.8688 27.0225H86.5742V35.4556H84.7618V17.3196ZM86.5742 19.0826V25.2471L89.6441 25.2841C90.8853 25.2841 91.7935 25.1732 92.3689 24.9512C92.9442 24.7211 93.3963 24.3553 93.7251 23.854C94.0538 23.3444 94.2182 22.7772 94.2182 22.1526C94.2182 21.5443 94.0538 20.9895 93.7251 20.4881C93.3963 19.9785 92.9606 19.6169 92.4182 19.4032C91.8839 19.1895 91.0044 19.0826 89.7798 19.0826L86.5742 19.0826Z" fill="white"/>
<path d="M112.798 22.0417V35.4557H111.097V33.1502C110.374 34.0297 109.56 34.6913 108.656 35.1352C107.76 35.579 106.778 35.8009 105.709 35.8009C103.81 35.8009 102.187 35.1146 100.839 33.742C99.4993 32.3611 98.8295 30.6844 98.8295 28.7118C98.8295 26.7802 99.5076 25.1281 100.864 23.7555C102.22 22.3828 103.851 21.6965 105.758 21.6965C106.86 21.6965 107.854 21.9308 108.742 22.3993C109.638 22.8678 110.423 23.5705 111.097 24.5076V22.0417H112.798ZM105.894 23.361C104.932 23.361 104.045 23.5993 103.231 24.076C102.417 24.5445 101.768 25.2062 101.283 26.061C100.806 26.9158 100.568 27.82 100.568 28.7734C100.568 29.7186 100.81 30.6228 101.295 31.4858C101.78 32.3488 102.43 33.0228 103.243 33.5077C104.065 33.9845 104.945 34.2228 105.882 34.2228C106.827 34.2228 107.723 33.9845 108.569 33.5077C109.416 33.031 110.065 32.3858 110.517 31.5721C110.978 30.7584 111.208 29.8419 111.208 28.8227C111.208 27.2693 110.694 25.9706 109.667 24.9267C108.647 23.8829 107.39 23.361 105.894 23.361Z" fill="white"/>
<path d="M115.252 22.0415H117.076L121.687 32.3732L126.163 22.0415H128L119.998 40.3624H118.174L120.763 34.4445L115.252 22.0415Z" fill="white"/>
<path d="M110.5 0.253919C109.095 0.260108 107.749 0.822666 106.758 1.8185C105.766 2.81434 105.21 4.16236 105.21 5.56762C105.209 6.26545 105.347 6.95646 105.614 7.60118C105.881 8.2459 106.272 8.83173 106.766 9.32519C107.259 9.81865 107.845 10.2101 108.49 10.4771C109.134 10.7442 109.825 10.8817 110.523 10.8817C111.932 10.8816 113.284 10.3216 114.28 9.32504C115.277 8.32847 115.837 6.97688 115.837 5.56762C115.836 4.15842 115.277 2.80695 114.28 1.81046C113.284 0.81397 111.932 0.254072 110.523 0.253919C110.515 0.253902 110.508 0.253902 110.5 0.253919ZM109.831 1.53679C109.852 1.53679 109.873 1.53881 109.892 1.54184C110.156 1.59374 110.181 2.00941 109.916 2.07584C108.018 2.45539 106.727 4.20136 107.031 6.09916C107.031 6.47874 106.575 6.62982 106.575 6.17435C106.196 3.97288 107.562 1.99967 109.763 1.5442C109.787 1.53936 109.81 1.5372 109.831 1.53679ZM99.4397 3.74523C98.8315 3.74519 98.2293 3.86496 97.6674 4.0977C97.1055 4.33044 96.595 4.67157 96.1649 5.10164C95.7349 5.53171 95.3938 6.04231 95.1611 6.60422C94.9284 7.16614 94.8087 7.76837 94.8088 8.37656C94.8087 8.98472 94.9285 9.58694 95.1612 10.1488C95.3939 10.7107 95.735 11.2212 96.165 11.6512C96.5951 12.0812 97.1056 12.4224 97.6675 12.6551C98.2294 12.8878 98.8316 13.0075 99.4397 13.0075C100.668 13.0074 101.846 12.5194 102.714 11.6509C103.582 10.7825 104.07 9.60465 104.07 8.37656C104.07 7.76844 103.95 7.16626 103.718 6.60439C103.485 6.04253 103.144 5.532 102.714 5.10194C102.284 4.67187 101.774 4.3307 101.212 4.09792C100.65 3.86513 100.048 3.74529 99.4397 3.74523ZM98.7357 4.8762C98.7534 4.8762 98.7702 4.87629 98.7865 4.87901C99.0148 4.91636 99.0978 5.27302 98.8321 5.33945C97.162 5.719 96.1 7.23819 96.3278 8.90826C96.4037 9.13601 95.948 9.2871 95.8721 8.98344C95.5684 7.00973 96.7069 5.26448 98.6806 4.88491C98.6996 4.88007 98.7181 4.87721 98.7357 4.8762ZM107.031 6.85836C107.334 6.85836 107.334 7.38922 107.031 7.38922C106.651 7.38922 106.651 6.93428 107.031 6.85836ZM96.4029 9.59097C96.7066 9.59097 96.7066 10.0467 96.4029 10.0467C96.0993 10.0467 96.0993 9.59097 96.4029 9.59097ZM106.25 14.5257C105.126 14.5317 104.051 14.9822 103.259 15.7786C102.466 16.575 102.021 17.6527 102.021 18.7761C102.021 19.9035 102.469 20.9848 103.266 21.7822C104.063 22.5795 105.144 23.0275 106.272 23.0277C106.83 23.0278 107.383 22.9178 107.899 22.7042C108.415 22.4906 108.883 22.1774 109.278 21.7826C109.673 21.3878 109.986 20.9191 110.2 20.4032C110.413 19.8873 110.523 19.3345 110.523 18.7761C110.523 17.6487 110.075 16.5675 109.278 15.7704C108.48 14.9733 107.399 14.5256 106.272 14.5257C106.264 14.5257 106.257 14.5257 106.25 14.5257ZM105.746 15.5795C105.923 15.6024 106.006 15.9011 105.74 15.9676C104.222 16.2712 103.235 17.6376 103.463 19.1559C103.463 19.4595 103.084 19.5355 103.084 19.3078C102.856 17.5618 103.919 15.9674 105.665 15.5878C105.693 15.5783 105.721 15.5763 105.746 15.5795ZM103.463 19.7635C103.767 19.7635 103.767 20.2191 103.463 20.2191C103.235 20.2191 103.235 19.7635 103.463 19.7635Z" fill="black"/>
<path d="M-0.000183105 17.3196H1.84917V24.1252L9.0863 17.3196H11.5398L2.82316 25.4567L12.2179 35.4556H9.81371L1.84917 26.9979V35.4556H-0.000183105V17.3196Z" fill="black"/>
<path d="M21.0084 21.6963C23.0714 21.6963 24.7811 22.4442 26.1372 23.9402C27.3702 25.3046 27.9866 26.9197 27.9866 28.7855C27.9866 30.6595 27.3332 32.2992 26.0263 33.7048C24.7276 35.102 23.055 35.8007 21.0084 35.8007C18.9535 35.8007 17.2727 35.102 15.9658 33.7048C14.6672 32.2992 14.0178 30.6595 14.0178 28.7855C14.0178 26.9279 14.6343 25.3169 15.8672 23.9525C17.2234 22.4484 18.9371 21.6963 21.0084 21.6963ZM21.0084 23.3854C19.5782 23.3854 18.3494 23.9155 17.322 24.9758C16.2946 26.0361 15.7809 27.3183 15.7809 28.8225C15.7809 29.7923 16.0151 30.6965 16.4836 31.5348C16.9521 32.3732 17.585 33.0225 18.3823 33.4828C19.1796 33.9349 20.0549 34.1609 21.0084 34.1609C21.9618 34.1609 22.8372 33.9349 23.6345 33.4828C24.4317 33.0225 25.0646 32.3732 25.5331 31.5348C26.0016 30.6965 26.2359 29.7923 26.2359 28.8225C26.2359 27.3183 25.7181 26.0361 24.6824 24.9758C23.655 23.9155 22.4303 23.3854 21.0084 23.3854Z" fill="black"/>
<path d="M32.6837 17.0605H34.4221V22.0415H37.1591V23.521H34.4221V35.4554H32.6837V23.521H30.3289V22.0415H32.6837V17.0605Z" fill="black"/>
<path d="M53.1251 22.0415V35.4555H51.4237V33.1499C50.7004 34.0294 49.8867 34.6911 48.9826 35.1349C48.0867 35.5788 47.1045 35.8007 46.036 35.8007C44.1373 35.8007 42.514 35.1144 41.166 33.7417C39.8262 32.3609 39.1564 30.6841 39.1564 28.7115C39.1564 26.78 39.8345 25.1279 41.1907 23.7552C42.5469 22.3826 44.1784 21.6963 46.0853 21.6963C47.1867 21.6963 48.1812 21.9305 49.0689 22.399C49.9648 22.8675 50.7498 23.5703 51.4237 24.5073V22.0415H53.1251ZM46.2209 23.3607C45.2592 23.3607 44.3715 23.5991 43.5578 24.0758C42.7441 24.5443 42.0948 25.2059 41.6098 26.0608C41.1331 26.9156 40.8948 27.8197 40.8948 28.7731C40.8948 29.7184 41.1372 30.6225 41.6222 31.4855C42.1071 32.3486 42.7564 33.0225 43.5702 33.5075C44.3921 33.9842 45.2716 34.2226 46.2086 34.2226C47.1538 34.2226 48.0497 33.9842 48.8963 33.5075C49.7429 33.0308 50.3922 32.3855 50.8443 31.5718C51.3046 30.7581 51.5347 29.8417 51.5347 28.8225C51.5347 27.269 51.021 25.9703 49.9936 24.9265C48.9744 23.8826 47.7168 23.3607 46.2209 23.3607Z" fill="black"/>
<path d="M57.0211 22.0415H58.7472V24.4457C59.4376 23.5251 60.202 22.8388 61.0404 22.3867C61.8787 21.9264 62.7911 21.6963 63.7774 21.6963C64.7802 21.6963 65.6679 21.9511 66.4405 22.4607C67.2213 22.9703 67.7967 23.6566 68.1665 24.5196C68.5364 25.3827 68.7214 26.7265 68.7214 28.5512V35.4555H67.0076V29.0567C67.0076 27.5115 66.9419 26.4799 66.8104 25.9621C66.6049 25.0744 66.2186 24.4087 65.6514 23.9648C65.0843 23.5128 64.3446 23.2867 63.4322 23.2867C62.3883 23.2867 61.4513 23.6319 60.6212 24.3224C59.7993 25.0128 59.2568 25.8676 58.9938 26.8868C58.8294 27.5526 58.7472 28.769 58.7472 30.5362V35.4555H57.0211V22.0415Z" fill="black"/>
<path d="M73.0123 16.5181C73.4068 16.5181 73.7438 16.6578 74.0232 16.9373C74.3027 17.2167 74.4424 17.5537 74.4424 17.9482C74.4424 18.3345 74.3027 18.6674 74.0232 18.9469C73.7438 19.2263 73.4068 19.3661 73.0123 19.3661C72.626 19.3661 72.2931 19.2263 72.0136 18.9469C71.7342 18.6674 71.5944 18.3345 71.5944 17.9482C71.5944 17.5537 71.7342 17.2167 72.0136 16.9373C72.2931 16.6578 72.626 16.5181 73.0123 16.5181ZM72.1492 22.0415H73.8876V35.4554H72.1492V22.0415Z" fill="black"/>
<path d="M84.7618 17.3196H88.3742C90.4455 17.3196 91.8428 17.41 92.5661 17.5908C93.6018 17.8456 94.4483 18.3717 95.1059 19.1689C95.7634 19.958 96.0922 20.9525 96.0922 22.1526C96.0922 23.3608 95.7717 24.3594 95.1306 25.1485C94.4894 25.9293 93.6059 26.4554 92.4798 26.7266C91.6579 26.9239 90.1209 27.0225 87.8688 27.0225H86.5742V35.4556H84.7618V17.3196ZM86.5742 19.0826V25.2471L89.6441 25.2841C90.8853 25.2841 91.7935 25.1732 92.3688 24.9512C92.9442 24.7211 93.3963 24.3553 93.725 23.854C94.0538 23.3444 94.2182 22.7772 94.2182 22.1526C94.2182 21.5443 94.0538 20.9895 93.725 20.4881C93.3963 19.9785 92.9606 19.6169 92.4182 19.4032C91.8839 19.1895 91.0044 19.0826 89.7798 19.0826L86.5742 19.0826Z" fill="black"/>
<path d="M112.797 22.0415V35.4555H111.096V33.1499C110.373 34.0294 109.559 34.6911 108.655 35.1349C107.759 35.5788 106.777 35.8007 105.708 35.8007C103.809 35.8007 102.186 35.1144 100.838 33.7417C99.4984 32.3609 98.8286 30.6841 98.8286 28.7115C98.8286 26.78 99.5066 25.1279 100.863 23.7552C102.219 22.3826 103.851 21.6963 105.757 21.6963C106.859 21.6963 107.853 21.9305 108.741 22.399C109.637 22.8675 110.422 23.5703 111.096 24.5073V22.0415H112.797ZM105.893 23.3607C104.931 23.3607 104.044 23.5991 103.23 24.0758C102.416 24.5443 101.767 25.2059 101.282 26.0608C100.805 26.9156 100.567 27.8197 100.567 28.7731C100.567 29.7184 100.809 30.6225 101.294 31.4855C101.779 32.3486 102.429 33.0225 103.242 33.5075C104.064 33.9842 104.944 34.2226 105.881 34.2226C106.826 34.2226 107.722 33.9842 108.568 33.5075C109.415 33.0308 110.064 32.3855 110.516 31.5718C110.977 30.7581 111.207 29.8417 111.207 28.8225C111.207 27.269 110.693 25.9703 109.666 24.9265C108.647 23.8826 107.389 23.3607 105.893 23.3607Z" fill="black"/>
<path d="M115.251 22.0415H117.076L121.687 32.3732L126.162 22.0415H127.999L119.998 40.3624H118.173L120.762 34.4445L115.251 22.0415Z" fill="black"/>
</svg>
