<svg width="50" height="41" viewBox="0 0 50 41" fill="none" xmlns="http://www.w3.org/2000/svg">
<path fill-rule="evenodd" clip-rule="evenodd" d="M31.9337 19.1503C32.07 19.2866 32.2291 19.7184 32.4336 19.9684C27.434 23.1724 16.458 30.2402 10.3222 34.7626C12.6174 37.0348 15.5035 38.785 18.7987 39.7622C29.5024 42.8983 40.7965 36.717 43.9326 26.013C45.3647 21.1498 44.8647 16.196 42.9106 11.9236C41.3653 13.3326 39.5921 14.7643 37.6835 16.196C37.615 16.2187 37.5702 16.2642 37.5017 16.3096C36.0018 17.4459 34.4334 18.5821 32.7975 19.6957C32.6385 19.423 32.4567 19.1503 32.2976 18.8776C33.4338 18.0822 34.5477 17.3095 35.6382 16.5369L35.684 16.4914C36.9335 15.6051 38.138 14.7416 39.2515 13.8553C36.9793 15.1961 34.5928 16.2642 32.2294 17.1501C32.2073 16.7184 32.2521 16.2866 32.2294 15.8775C31.9797 16.082 31.6843 16.2866 31.434 16.4911C31.0931 16.4684 30.8889 16.332 30.5253 16.2411C30.2523 15.8775 29.9796 15.5366 29.7072 15.1958C33.3433 13.6504 37.1381 11.6279 41.1377 8.76448C38.5076 4.95406 34.649 2.16217 30.2072 0.855745C19.5032 -2.28035 8.20871 3.87822 5.04988 14.6049C4.11815 17.8092 4.00452 21.0359 4.59538 24.1268C5.79982 23.4899 6.98154 22.9224 8.20871 22.4224V22.8312L7.73148 23.4902C6.70239 23.805 5.68649 24.1615 4.68628 24.5586C5.48198 28.2628 7.32274 31.6713 9.93583 34.3759C15.526 29.8309 26.1614 22.7182 31.9337 19.1503Z" fill="black"/>
<path fill-rule="evenodd" clip-rule="evenodd" d="M13.4806 20.5366C13.4352 20.5366 13.3897 20.5593 13.3215 20.5824L13.4806 20.8321V20.5366Z" fill="black"/>
<path fill-rule="evenodd" clip-rule="evenodd" d="M10.6627 21.468C10.2184 21.6212 9.7788 21.7879 9.34464 21.9679V23.0133C9.95822 22.8542 10.6173 22.6724 11.2763 22.5133L10.6627 21.468ZM8.20837 22.4227C5.61768 23.4905 3.11789 24.7862 0.686279 26.5588C2.75429 25.2634 5.14045 24.3086 7.73114 23.4905L8.18564 22.8088L8.20837 22.4227ZM29.7069 15.1964C29.9793 15.5373 30.252 15.9006 30.5023 16.2418C30.8889 16.3554 31.0928 16.469 31.4337 16.4917C31.684 16.2872 31.9794 16.0827 32.2291 15.8782C32.2518 16.3099 32.207 16.7417 32.2291 17.1508C34.5925 16.2645 36.979 15.1967 39.2512 13.8783C38.138 14.7419 36.9332 15.6055 35.6836 16.4917L35.6379 16.5372C34.5474 17.3099 33.4335 18.0825 32.2972 18.8779C32.4563 19.1506 32.6381 19.4233 32.7972 19.696C34.4104 18.5825 36.0015 17.4462 37.5013 16.3099C37.5698 16.2645 37.6147 16.219 37.6831 16.1963C44.455 11.0604 49.7276 5.85628 50 1.19727C42.6142 8.4921 35.933 12.5372 29.7069 15.1964ZM17.9803 21.0138L18.0484 20.7868C17.7303 20.3093 17.4349 19.8775 17.1622 19.4457C16.2986 19.6957 15.4578 19.9457 14.6169 20.1953V21.7407C15.7077 21.4907 16.844 21.2641 17.9803 21.0138ZM31.9106 19.1503C32.0697 19.3094 32.2287 19.7184 32.4333 19.9684C25.8205 24.1953 8.89013 35.0808 6.2764 38.126C6.73122 35.7398 24.0025 24.059 31.9106 19.1503ZM17.7303 19.2639C17.8894 19.5593 18.0712 19.8548 18.2302 20.1275L18.5484 19.0367C18.2757 19.1048 18.003 19.1957 17.7303 19.2639ZM26.3435 19.0594C26.2977 18.9458 26.2977 18.8094 26.2977 18.6731C26.3205 17.4913 27.5022 16.2187 29.0478 16.1505C29.3202 16.1278 29.5478 16.1278 29.7517 16.1278C29.5699 15.8778 29.3657 15.6506 29.1611 15.4233C26.9795 16.3323 24.8888 17.0823 22.8208 17.7413L23.5253 19.7866C24.457 19.5593 25.3887 19.3094 26.3435 19.0594Z" fill="#ADACAC"/>
<path fill-rule="evenodd" clip-rule="evenodd" d="M30.8886 17.6504C30.8178 17.535 30.7338 17.4282 30.6383 17.3323C29.5699 17.0823 28.6842 17.4004 28.6842 17.8322C28.6842 18.0367 28.7748 18.1731 28.9339 18.2867C29.5929 18.0822 30.2516 17.8777 30.8886 17.6504Z" fill="black"/>
<path fill-rule="evenodd" clip-rule="evenodd" d="M36.1152 16.196L35.6379 16.5369C35.4334 16.3324 35.2743 16.1733 35.2743 16.196H36.1152ZM27.0701 22.241C26.8662 22.3773 26.6841 22.5133 26.4796 22.6497C26.4569 22.2867 26.5023 21.9228 26.4796 21.5592C26.616 21.8316 26.775 22.0364 27.0701 22.241ZM22.389 26.4903L23.0026 26.0815C23.6617 26.6273 24.2752 27.1042 24.6843 27.3538C25.5475 27.9677 25.1615 28.5813 24.9116 28.7174C24.6388 28.8764 23.9116 28.7401 23.5935 28.1268C23.5026 27.8993 22.9572 27.172 22.4572 26.5815C22.4402 26.5472 22.4171 26.5163 22.389 26.4903ZM29.9793 21.5137C30.8659 20.9459 31.661 20.4232 32.3658 20.0142C32.7518 20.4232 33.0021 20.9683 33.0021 21.6053C33.0479 22.9006 31.3431 23.7869 29.9339 23.8775C28.5479 23.9681 28.1843 23.8775 27.4113 23.6278C27.139 23.8317 26.7523 24.0366 26.4799 24.2641C26.4572 24.1051 26.4799 23.9233 26.4799 23.7642C27.0385 23.405 27.5991 23.0489 28.1616 22.6958C29.1388 22.9682 30.1614 22.9233 30.3432 22.3776C30.4793 21.9458 30.2975 21.6955 29.9793 21.5137Z" fill="white"/>
<path fill-rule="evenodd" clip-rule="evenodd" d="M32.4336 19.9683C33.1381 21.0819 33.7517 22.1954 34.1838 23.1953L33.4793 23.7865H34.4565C34.7746 24.6046 34.9792 25.3315 35.0476 25.8996C35.3431 28.3536 35.7067 29.5584 34.684 30.8765C33.8205 31.9449 32.3891 32.1267 28.98 30.9222C30.6617 32.2403 35.2976 33.2402 35.7518 29.3312C35.9563 27.7407 35.5927 25.7866 34.8431 23.7868H36.3203L35.57 22.946L35.843 21.946H38.2971L38.6152 22.9232L37.8656 23.7868H42.7061L41.5922 22.7869L39.3427 16.1965H37.6838C37.1672 16.5733 36.6521 16.9521 36.1385 17.3328L34.5022 22.9232C33.7299 21.1052 32.6842 19.3099 31.5025 17.6282C31.7749 17.7646 31.9797 17.9464 32.2294 18.1736C32.2294 17.4237 32.2521 16.6283 32.2294 15.8784C31.9797 16.0829 31.6843 16.2874 31.4113 16.492C31.0931 16.4692 30.8662 16.3556 30.5026 16.242C29.5027 14.9012 28.4115 13.6513 27.321 12.6287C22.8662 8.37838 18.526 5.74224 15.5941 7.44664C12.6398 9.17377 15.1623 15.7868 16.5031 18.2866C16.8667 19.0138 17.4349 19.8774 18.0485 20.7864L17.4121 22.8996L16.4122 23.7862H19.2529L18.4802 22.8996L18.7757 21.9454H18.7984C20.0483 23.7407 21.3436 25.3994 21.7527 25.8081C21.9118 25.6948 22.0936 25.5584 22.2526 25.4451C21.9572 25.1948 21.6618 24.9224 21.4118 24.6494C21.0482 24.3085 20.2755 23.3086 19.3665 21.9457H21.23L21.5482 22.8772L20.7755 23.7865H24.7752C24.9342 23.6725 25.116 23.5362 25.2751 23.4456L24.5252 22.7411L22.2526 16.1962H18.2075C18.1848 16.128 19.1393 17.1052 19.1393 17.1052L18.2303 20.1504C16.7986 17.7643 15.3441 14.8554 14.9124 12.4693C14.0488 7.90147 16.5713 6.31069 21.0255 8.44688C23.7752 9.78767 27.0474 12.7647 29.729 16.128C29.5478 16.128 29.3202 16.128 29.0478 16.1508C27.5025 16.2189 26.3205 17.4916 26.275 18.6733C26.2523 19.855 27.7522 20.6273 28.6385 20.991C28.707 21.0137 28.7748 21.0594 28.843 21.0822C29.8202 20.4459 30.7289 19.9004 31.5697 19.3778C31.3658 19.2641 31.1383 19.1505 30.9107 19.0596C29.729 18.6051 28.707 18.4915 28.6612 17.8324C28.6839 17.4007 29.5699 17.0825 30.661 17.3325L31.9333 19.1505L32.4336 19.9683Z" fill="white"/>
<path fill-rule="evenodd" clip-rule="evenodd" d="M7.43567 16.196H10.7763L13.4806 20.8317V17.0823L12.7761 16.196H15.3668L14.6169 17.0369V22.7182L15.4577 23.7866H12.0035L9.3446 19.264V23.0364L10.14 23.7866H7.48112L8.18561 22.8088L8.20833 17.1051L7.43567 16.196Z" fill="white"/>
<path fill-rule="evenodd" clip-rule="evenodd" d="M19.1166 20.923H20.7528L19.8892 18.2642C19.8892 18.2642 19.162 20.9 19.1166 20.923Z" fill="black"/>
<path fill-rule="evenodd" clip-rule="evenodd" d="M20.0028 18.6047C19.928 18.6306 19.8522 18.6533 19.7756 18.6729C19.6165 19.2638 19.2983 20.3546 19.162 20.764C19.6392 20.65 20.1392 20.5364 20.5937 20.4458L20.0028 18.6047Z" fill="#ADACAC"/>
<path fill-rule="evenodd" clip-rule="evenodd" d="M36.1832 20.9232H37.8195L36.9559 18.3098C36.9559 18.3098 36.229 20.9002 36.1832 20.9232Z" fill="black"/>
<path fill-rule="evenodd" clip-rule="evenodd" d="M24.3888 1.46993C24.5025 1.51538 24.5934 1.65173 24.5479 1.76536C24.5025 1.90171 24.3661 1.96989 24.2525 1.94716C24.1161 1.90171 24.048 1.76536 24.0707 1.62901C24.1161 1.51538 24.2525 1.44721 24.3888 1.46993ZM18.6166 30.6717C18.7757 30.7175 18.8893 30.8993 18.8211 31.0583C18.7757 31.2401 18.6166 31.3307 18.4348 31.2859C18.3937 31.2736 18.3556 31.2531 18.3227 31.2255C18.2899 31.1979 18.2631 31.1639 18.2439 31.1255C18.2247 31.0871 18.2136 31.0452 18.2113 31.0024C18.2089 30.9596 18.2154 30.9168 18.2303 30.8765C18.2757 30.7175 18.4575 30.6269 18.6166 30.6717ZM12.6171 30.5584C12.6582 30.5706 12.6963 30.5912 12.7292 30.6188C12.762 30.6464 12.7888 30.6804 12.808 30.7188C12.8272 30.7571 12.8383 30.799 12.8406 30.8419C12.843 30.8847 12.8365 30.9275 12.8216 30.9677C12.7762 31.1268 12.5944 31.2174 12.4353 31.1716C12.2762 31.1265 12.1626 30.9447 12.2308 30.7856C12.2405 30.7449 12.2584 30.7066 12.2833 30.673C12.3082 30.6394 12.3396 30.6111 12.3756 30.5899C12.4117 30.5687 12.4517 30.5549 12.4932 30.5495C12.5347 30.5441 12.5768 30.5471 12.6171 30.5584ZM17.2758 27.8768C17.3894 27.9226 17.4576 28.0586 17.4349 28.1722C17.3891 28.2862 17.2758 28.354 17.1391 28.3313C17.0255 28.2862 16.9573 28.1495 16.9801 28.0359C17.0258 27.9222 17.1622 27.8541 17.2758 27.8768ZM15.0942 29.9221C15.1851 29.9448 15.2305 30.0584 15.2078 30.149C15.1851 30.2402 15.0714 30.286 14.9805 30.2629C14.8896 30.2399 14.8442 30.1266 14.8669 30.0354C14.8896 29.9451 14.9805 29.8993 15.0942 29.9221ZM16.4804 32.3534C16.594 32.3991 16.6622 32.5124 16.6395 32.6264C16.594 32.7397 16.4804 32.8082 16.3668 32.7627C16.3398 32.758 16.3142 32.7473 16.292 32.7313C16.2697 32.7153 16.2514 32.6945 16.2383 32.6705C16.2252 32.6464 16.2176 32.6197 16.2163 32.5923C16.2149 32.565 16.2198 32.5377 16.2304 32.5124C16.2532 32.3991 16.3668 32.3306 16.4804 32.3534ZM18.8439 32.7858C18.9348 32.8085 18.9802 32.8991 18.9575 32.9897C18.9348 33.0582 18.8439 33.1267 18.753 33.1036C18.6621 33.0578 18.6166 32.9673 18.6393 32.8991C18.6621 32.8085 18.7757 32.7627 18.8439 32.7858ZM33.2066 27.5359C33.3199 27.5817 33.3884 27.695 33.3429 27.7862C33.3202 27.8995 33.2066 27.9453 33.0926 27.9226C33.0021 27.8998 32.9336 27.7862 32.9563 27.6723C33.0017 27.5814 33.1154 27.5129 33.2066 27.5359ZM33.2514 29.8766C33.3654 29.8993 33.4332 30.0357 33.4105 30.149C33.3653 30.2629 33.2287 30.3308 33.1381 30.286C33.0248 30.2633 32.9336 30.1269 32.979 30.0357C33.0017 29.9221 33.1381 29.8536 33.2514 29.8766ZM34.797 27.8541C34.9104 27.8768 35.0016 28.0359 34.9561 28.1722C34.9334 28.3092 34.7743 28.3998 34.638 28.354C34.5016 28.3089 34.4334 28.1495 34.4562 28.0359C34.5016 27.8995 34.6607 27.8083 34.797 27.8541ZM34.7743 26.3084C34.9334 26.3542 35.0473 26.5587 35.0019 26.7178C34.9564 26.8769 34.7516 26.9902 34.5925 26.9454C34.4107 26.8996 34.2971 26.6951 34.3429 26.536C34.4104 26.3542 34.5922 26.2406 34.7743 26.3084ZM37.751 26.2406C37.865 26.2633 37.9556 26.4224 37.9101 26.536C37.888 26.6493 37.7289 26.7178 37.6377 26.6951C37.5014 26.6493 37.4332 26.5133 37.4559 26.3996C37.5014 26.2863 37.6377 26.1951 37.751 26.2406ZM39.547 27.831C39.6603 27.8768 39.7288 28.0128 39.6833 28.1492C39.6606 28.2404 39.5242 28.331 39.4109 28.2862C39.2739 28.2634 39.2064 28.1271 39.2291 28.0131C39.2736 27.8768 39.4106 27.8083 39.547 27.831ZM37.6377 29.5812C37.751 29.6039 37.8195 29.763 37.7968 29.8766C37.751 29.9899 37.615 30.0584 37.5014 30.0357C37.3881 29.9899 37.2968 29.8539 37.3423 29.7403C37.3653 29.627 37.5014 29.5357 37.6377 29.5812ZM39.2967 30.6269C39.3879 30.649 39.4785 30.7859 39.433 30.8993C39.4109 31.0126 39.2739 31.0811 39.1606 31.0583C39.0473 31.0126 38.9788 30.8765 39.0243 30.7859C39.047 30.6717 39.183 30.6038 39.2967 30.6269ZM40.5917 27.3768C40.7056 27.4226 40.7962 27.5814 40.7735 27.695C40.7284 27.8313 40.5696 27.9226 40.4553 27.8768C40.319 27.831 40.2284 27.6723 40.2735 27.5586C40.2966 27.4223 40.4557 27.3311 40.5917 27.3768ZM37.2968 25.3312C37.3881 25.354 37.4332 25.4452 37.4101 25.513C37.3881 25.5815 37.2968 25.627 37.229 25.6042C37.1605 25.5815 37.115 25.513 37.1378 25.4452C37.1605 25.3543 37.229 25.3085 37.2968 25.3312ZM34.0922 34.2172C34.2286 34.2629 34.3425 34.4447 34.2968 34.6038C34.251 34.7629 34.0692 34.8535 33.9101 34.8083C33.751 34.7626 33.6605 34.5808 33.7062 34.4217C33.7514 34.2626 33.9332 34.1714 34.0922 34.2172ZM17.1622 24.1495C17.2531 24.1722 17.2985 24.2635 17.2758 24.354C17.2531 24.4453 17.1395 24.5131 17.0486 24.4904C16.9577 24.4453 16.9122 24.354 16.9349 24.2635C16.9576 24.1722 17.0713 24.1047 17.1622 24.1495ZM11.7308 30.0811C11.8444 30.1039 11.9126 30.2402 11.8899 30.3535C11.8444 30.4899 11.7308 30.5581 11.6172 30.5126C11.5872 30.5082 11.5586 30.4972 11.5334 30.4802C11.5083 30.4633 11.4873 30.4409 11.472 30.4147C11.4568 30.3886 11.4476 30.3593 11.4452 30.3291C11.4427 30.2989 11.4472 30.2685 11.4581 30.2402C11.4625 30.2102 11.4736 30.1816 11.4906 30.1565C11.5076 30.1313 11.53 30.1104 11.5562 30.0951C11.5824 30.0798 11.6117 30.0706 11.6419 30.0682C11.6721 30.0658 11.7025 30.0702 11.7308 30.0811ZM11.9808 28.8767C12.0944 28.9225 12.1626 29.0358 12.1399 29.1721C12.0944 29.2861 11.9808 29.3539 11.8444 29.3091C11.7308 29.2864 11.6626 29.1494 11.7081 29.0361C11.7124 29.006 11.7234 28.9773 11.7404 28.9521C11.7573 28.9269 11.7798 28.9059 11.806 28.8906C11.8322 28.8752 11.8615 28.866 11.8918 28.8636C11.9221 28.8612 11.9525 28.8657 11.9808 28.8767ZM9.82189 29.127C9.91279 29.1721 9.95824 29.2633 9.93552 29.3309C9.91279 29.4221 9.82189 29.4679 9.73099 29.4448C9.64009 29.4218 9.59464 29.3309 9.61736 29.2403C9.64009 29.1718 9.73099 29.104 9.82189 29.127ZM23.0935 3.65156C23.2298 3.67429 23.298 3.81064 23.2526 3.94699C23.2071 4.08366 23.0708 4.15152 22.9571 4.10607C22.8208 4.08334 22.7526 3.94699 22.7981 3.81064C22.8208 3.67429 22.9571 3.60611 23.0935 3.65156ZM25.4569 4.01517C25.5251 4.03789 25.5702 4.1288 25.5475 4.19697C25.5251 4.26515 25.4569 4.3106 25.366 4.28787C25.3206 4.26515 25.2751 4.19697 25.2979 4.10607C25.3206 4.03789 25.3888 3.99244 25.4569 4.01517ZM25.5475 6.42437C25.616 6.4471 25.6615 6.51527 25.6387 6.58345C25.616 6.67435 25.5475 6.69708 25.4569 6.67435C25.3888 6.65163 25.3433 6.58345 25.366 6.51527C25.3888 6.44678 25.4797 6.40133 25.5475 6.42437ZM20.5028 5.40142C20.571 5.42414 20.6164 5.49232 20.5937 5.56049C20.571 5.65139 20.5028 5.69685 20.4346 5.67412C20.3437 5.65139 20.321 5.56049 20.3437 5.49232C20.3665 5.42414 20.4346 5.37869 20.5028 5.40142ZM20.9346 5.7423C21.0255 5.76502 21.0709 5.85592 21.0482 5.9241C21.0255 5.99227 20.9346 6.03741 20.8664 6.015C20.7982 5.99227 20.7528 5.9241 20.7755 5.8332C20.7982 5.76502 20.8664 5.71957 20.9346 5.7423ZM17.0486 9.3329C17.1395 9.35563 17.1849 9.44653 17.1622 9.5147C17.1395 9.58288 17.0486 9.62801 16.9804 9.6056C16.9122 9.58288 16.8667 9.5147 16.8895 9.4238C16.9122 9.35563 16.9804 9.3329 17.0486 9.3329ZM21.5709 5.99227C21.6618 6.015 21.7072 6.1059 21.6845 6.1968C21.6618 6.31043 21.5709 6.35588 21.4573 6.33315C21.3664 6.31043 21.3209 6.21953 21.3436 6.1059C21.3891 6.015 21.48 5.96955 21.5709 5.99227ZM20.7755 6.69676C20.8664 6.74221 20.9346 6.83311 20.9119 6.92401C20.8664 7.01491 20.7755 7.08309 20.6846 7.03764C20.5937 7.01492 20.5255 6.92401 20.571 6.81039C20.5937 6.71949 20.6846 6.67435 20.7755 6.69676ZM23.7071 5.37869C23.8207 5.42414 23.8889 5.53777 23.8434 5.62867C23.8207 5.76502 23.7071 5.81047 23.5707 5.78775C23.4798 5.7423 23.4116 5.65139 23.4571 5.51504C23.4798 5.40142 23.5935 5.35596 23.7071 5.37869ZM17.7076 10.2419C17.8212 10.2874 17.8894 10.401 17.8667 10.4919C17.8212 10.6282 17.7076 10.6737 17.594 10.651C17.4803 10.6055 17.4122 10.5146 17.4576 10.3783C17.4803 10.2646 17.594 10.2192 17.7076 10.2419ZM28.2518 7.78758C28.3882 7.83303 28.4794 7.96938 28.4336 8.10573C28.3879 8.26481 28.2518 8.33299 28.0928 8.28753C28.0609 8.27779 28.0315 8.26169 28.0061 8.24021C27.9807 8.21873 27.9599 8.19231 27.945 8.16255C27.9301 8.1328 27.9215 8.10034 27.9195 8.06713C27.9176 8.03393 27.9224 8.00067 27.9337 7.96938C27.9794 7.8103 28.1158 7.74213 28.2518 7.78758ZM27.9567 3.46976L28.1385 1.92444L28.2749 3.46976C28.3206 3.49249 28.3661 3.51521 28.3882 3.56066L29.4566 3.67429L28.4112 3.81064C28.3885 3.90154 28.3434 3.94699 28.2749 3.99244L28.1385 5.62867L27.9794 3.99244C27.9153 3.94843 27.8674 3.88455 27.8431 3.81064L26.7747 3.74246L27.8658 3.58339C27.8882 3.53794 27.934 3.49249 27.9567 3.46976ZM18.8439 9.4238L19.0029 8.44661L19.1393 9.4238C19.1877 9.44937 19.2273 9.48898 19.2529 9.53743L20.0256 9.62833L19.2756 9.78741C19.2529 9.85558 19.2075 9.92376 19.139 9.94649L19.0026 11.2646L18.8435 9.94649C18.7754 9.90103 18.7299 9.85558 18.7072 9.78741L18.0254 9.71923L18.7299 9.53743C18.7558 9.48909 18.7954 9.44954 18.8439 9.4238ZM39.7509 26.0133L39.9099 25.0361L40.0469 26.0133C40.0921 26.036 40.1375 26.0591 40.1602 26.1045L40.8878 26.2409L40.1833 26.3542C40.159 26.4281 40.1111 26.492 40.0469 26.536L39.8878 27.5132L39.7509 26.536C39.6868 26.4919 39.6389 26.428 39.6145 26.3542L38.7058 26.2636L39.6372 26.1272C39.6631 26.0789 39.7026 26.0393 39.7509 26.0133ZM37.9101 30.5126L38.0471 29.9448L38.2289 30.5126C38.274 30.5353 38.2967 30.5811 38.3195 30.6266L38.8422 30.8084L38.3649 30.8762C38.3422 30.9447 38.2737 31.0126 38.2286 31.058L38.0916 31.6492L37.9098 31.0353C37.8419 31.0126 37.7965 30.9447 37.7734 30.8762L37.1829 30.8084L37.8192 30.6486C37.8422 30.5811 37.865 30.5584 37.9101 30.5126ZM16.9804 34.6035L17.0713 33.6714L17.2985 34.6035C17.344 34.6262 17.3894 34.6713 17.4122 34.6941L18.2075 34.808L17.4349 34.9444C17.4122 35.035 17.3667 35.1034 17.2985 35.1262L17.1395 36.0803L16.9804 35.1262C16.9298 35.0745 16.891 35.0125 16.8667 34.9444L16.0941 34.8532L16.8895 34.7168C16.9122 34.6713 16.9349 34.6265 16.9804 34.6035ZM23.4344 32.3085C23.5707 32.3537 23.6616 32.4897 23.6162 32.6267C23.5704 32.7631 23.4344 32.8536 23.298 32.8085C23.1617 32.7627 23.0708 32.6267 23.1162 32.4897C23.1617 32.3534 23.298 32.2628 23.4344 32.3085ZM27.275 30.9677C27.3662 30.9898 27.434 31.1041 27.4113 31.1947C27.3662 31.3086 27.2522 31.3765 27.1616 31.331C27.0477 31.3089 27.0026 31.1947 27.0253 31.1041C27.0298 31.0771 27.0404 31.0514 27.0563 31.0291C27.0722 31.0068 27.0929 30.9884 27.117 30.9752C27.141 30.9621 27.1677 30.9546 27.1951 30.9533C27.2225 30.952 27.2498 30.9569 27.275 30.9677Z" fill="white"/>
</svg>
